<?xml version="1.0" encoding="UTF-8"?>
<svg xmlns="http://www.w3.org/2000/svg" xmlns:xlink="http://www.w3.org/1999/xlink" width="298pt" height="98pt" viewBox="0 0 298 98" version="1.1">
<defs>
<linearGradient id="linear0" gradientUnits="userSpaceOnUse" x1="3739.2729" y1="167.9705" x2="3850.915" y2="50.9818" gradientTransform="matrix(-0.267603,0.542036,-0.540513,-0.268357,1130.139036,-1978.588672)">
<stop offset="0" style="stop-color:rgb(100%,50.980392%,0%);stop-opacity:1;"/>
<stop offset="1" style="stop-color:rgb(100%,77.647059%,0%);stop-opacity:1;"/>
</linearGradient>
</defs>
<g id="surface1">
<path style=" stroke:none;fill-rule:nonzero;fill:rgb(1.568627%,41.568627%,21.960784%);fill-opacity:1;" d="M 101.382812 29.402344 L 114.953125 29.402344 C 127.5 29.402344 134.796875 36.660156 134.796875 46.824219 L 134.796875 46.945312 C 134.796875 57.105469 127.378906 64.664062 114.710938 64.664062 L 101.324219 64.664062 L 101.324219 29.402344 Z M 115.136719 56.015625 C 120.984375 56.015625 124.84375 52.808594 124.84375 47.066406 L 124.84375 46.945312 C 124.84375 41.320312 120.984375 37.992188 115.136719 37.992188 L 111.15625 37.992188 L 111.15625 55.957031 L 115.136719 55.957031 Z M 115.136719 56.015625 "/>
<path style=" stroke:none;fill-rule:nonzero;fill:rgb(1.568627%,41.568627%,21.960784%);fill-opacity:1;" d="M 151.625 29.160156 L 161.03125 29.160156 L 175.988281 64.726562 L 165.554688 64.726562 L 162.960938 58.433594 L 146.859375 64.726562 L 136.605469 64.726562 Z M 160.128906 50.753906 L 156.207031 40.714844 L 150.660156 54.746094 Z M 160.128906 50.753906 "/>
<path style=" stroke:none;fill-rule:nonzero;fill:rgb(1.568627%,41.568627%,21.960784%);fill-opacity:1;" d="M 288.710938 64.664062 L 278.460938 64.664062 L 262.355469 58.375 L 259.761719 64.664062 L 249.328125 64.664062 L 264.285156 29.101562 L 273.695312 29.101562 Z M 274.660156 54.746094 L 269.109375 40.714844 L 265.191406 50.753906 Z M 274.660156 54.746094 "/>
<path style=" stroke:none;fill-rule:nonzero;fill:rgb(1.568627%,41.568627%,21.960784%);fill-opacity:1;" d="M 177.980469 47.125 L 177.980469 47.003906 C 177.980469 36.722656 185.878906 28.679688 196.554688 28.679688 C 203.734375 28.679688 208.375 31.703125 211.511719 36.058594 L 204.15625 41.742188 C 202.164062 39.203125 199.8125 37.628906 196.433594 37.628906 C 191.488281 37.628906 188.050781 41.800781 188.050781 46.945312 L 188.050781 47.066406 C 188.050781 52.386719 191.550781 56.5 196.433594 56.5 C 200.113281 56.5 202.285156 54.804688 204.394531 52.207031 L 211.753906 57.46875 C 208.4375 62.0625 203.972656 65.449219 196.195312 65.449219 C 186.0625 65.390625 177.980469 57.710938 177.980469 47.125 Z M 177.980469 47.125 "/>
<path style=" stroke:none;fill-rule:nonzero;fill:rgb(1.568627%,41.568627%,21.960784%);fill-opacity:1;" d="M 215.734375 59.464844 L 221.164062 52.929688 C 224.660156 55.714844 228.519531 57.164062 232.5625 57.164062 C 235.15625 57.164062 236.601562 56.257812 236.601562 54.746094 L 236.601562 54.625 C 236.601562 53.171875 235.457031 52.328125 230.691406 51.238281 C 223.214844 49.542969 217.421875 47.425781 217.421875 40.167969 L 217.421875 40.046875 C 217.421875 33.515625 222.609375 28.738281 231.054688 28.738281 C 237.023438 28.738281 241.730469 30.371094 245.527344 33.457031 L 240.644531 40.410156 C 237.445312 38.113281 233.890625 36.902344 230.8125 36.902344 C 228.460938 36.902344 227.316406 37.933594 227.316406 39.203125 L 227.316406 39.324219 C 227.316406 40.957031 228.519531 41.621094 233.40625 42.769531 C 241.488281 44.523438 246.554688 47.1875 246.554688 53.777344 L 246.554688 53.898438 C 246.554688 61.097656 240.886719 65.390625 232.320312 65.390625 C 225.988281 65.269531 220.078125 63.335938 215.734375 59.464844 Z M 215.734375 59.464844 "/>
<path style=" stroke:none;fill-rule:nonzero;fill:rgb(31.372549%,32.54902%,35.294118%);fill-opacity:1;" d="M 114.351562 88.675781 L 110.492188 88.675781 L 110.492188 87.707031 L 115.558594 87.707031 L 115.558594 93.757812 C 114.050781 94.601562 112 95.148438 109.34375 95.148438 C 103.976562 95.148438 101.023438 91.882812 101.023438 87.648438 C 101.023438 83.171875 104.460938 80.085938 109.285156 80.085938 C 111.757812 80.085938 113.867188 80.875 115.4375 82.144531 L 114.832031 82.871094 C 113.265625 81.71875 111.515625 81.117188 109.285156 81.117188 C 105.304688 81.117188 102.347656 83.898438 102.347656 87.707031 C 102.347656 91.578125 105.125 94.238281 109.34375 94.238281 C 111.578125 94.238281 113.203125 93.878906 114.410156 93.273438 L 114.410156 88.675781 Z M 114.351562 88.675781 "/>
<path style=" stroke:none;fill-rule:nonzero;fill:rgb(31.372549%,32.54902%,35.294118%);fill-opacity:1;" d="M 127.980469 88.433594 L 131.480469 92.726562 C 132.203125 93.636719 132.988281 94.179688 133.710938 94.300781 L 133.890625 94.359375 L 133.769531 95.269531 L 133.46875 95.207031 C 132.261719 95.027344 131.417969 94.480469 130.394531 93.273438 L 126.535156 88.496094 L 122.25 88.496094 L 122.25 94.964844 L 121.046875 94.964844 L 121.046875 80.328125 L 127.558594 80.328125 C 129.1875 80.328125 130.574219 80.570312 131.480469 81.238281 C 132.324219 81.839844 132.867188 82.808594 132.867188 84.320312 C 132.925781 87.101562 131.117188 88.253906 127.980469 88.433594 Z M 122.3125 81.296875 L 122.3125 87.464844 L 127.4375 87.464844 C 130.03125 87.464844 131.660156 86.679688 131.660156 84.320312 C 131.660156 83.234375 131.359375 82.507812 130.816406 82.082031 C 130.09375 81.480469 128.945312 81.296875 127.558594 81.296875 Z M 122.3125 81.296875 "/>
<path style=" stroke:none;fill-rule:nonzero;fill:rgb(31.372549%,32.54902%,35.294118%);fill-opacity:1;" d="M 153.070312 87.585938 C 153.070312 91.578125 150.597656 95.148438 145.289062 95.148438 C 139.984375 95.148438 137.511719 91.578125 137.511719 87.585938 C 137.511719 83.714844 139.984375 80.027344 145.289062 80.027344 C 150.597656 80.027344 153.070312 83.714844 153.070312 87.585938 Z M 151.804688 87.585938 C 151.804688 84.320312 149.8125 81.054688 145.289062 81.054688 C 140.765625 81.054688 138.777344 84.382812 138.777344 87.585938 C 138.777344 90.914062 140.765625 94.179688 145.289062 94.179688 C 149.8125 94.179688 151.804688 90.914062 151.804688 87.585938 Z M 151.804688 87.585938 "/>
<path style=" stroke:none;fill-rule:nonzero;fill:rgb(31.372549%,32.54902%,35.294118%);fill-opacity:1;" d="M 160.066406 93.757812 C 158.800781 92.726562 158.199219 91.214844 158.199219 88.917969 L 158.199219 80.269531 L 159.402344 80.269531 L 159.402344 88.917969 C 159.402344 90.851562 159.824219 92.125 160.789062 93.03125 C 161.695312 93.816406 162.839844 94.179688 164.46875 94.179688 C 166.097656 94.179688 167.304688 93.816406 168.148438 93.03125 C 169.113281 92.125 169.535156 90.914062 169.535156 88.917969 L 169.535156 80.269531 L 170.742188 80.269531 L 170.742188 88.917969 C 170.742188 91.214844 170.140625 92.726562 168.871094 93.757812 C 167.785156 94.664062 166.398438 95.085938 164.410156 95.085938 C 162.417969 95.085938 161.152344 94.664062 160.066406 93.757812 Z M 160.066406 93.757812 "/>
<path style=" stroke:none;fill-rule:nonzero;fill:rgb(31.372549%,32.54902%,35.294118%);fill-opacity:1;" d="M 187.8125 88.132812 C 186.90625 89.097656 185.640625 89.644531 183.46875 89.644531 L 177.980469 89.644531 L 177.980469 94.90625 L 176.773438 94.90625 L 176.773438 80.269531 L 183.527344 80.269531 C 185.640625 80.269531 186.785156 80.753906 187.691406 81.539062 C 188.535156 82.324219 188.957031 83.59375 188.957031 84.804688 C 188.957031 86.015625 188.59375 87.222656 187.8125 88.132812 Z M 177.980469 81.296875 L 177.980469 88.675781 L 183.589844 88.675781 C 185.15625 88.675781 186.0625 88.3125 186.785156 87.585938 C 187.386719 86.921875 187.691406 86.015625 187.691406 84.925781 C 187.691406 83.957031 187.449219 83.050781 186.84375 82.386719 C 186.183594 81.660156 185.21875 81.296875 183.589844 81.296875 Z M 177.980469 81.296875 "/>
<path style=" stroke:none;fill-rule:nonzero;fill:url(#linear0);" d="M 87.453125 29.707031 L 81.480469 45.550781 C 81.300781 45.976562 80.9375 46.277344 80.515625 46.339844 L 65.738281 48.878906 C 65.257812 48.941406 64.835938 48.757812 64.535156 48.394531 L 60.070312 42.527344 C 59.828125 42.226562 59.769531 41.863281 59.828125 41.5 L 64.109375 22.386719 C 64.351562 21.238281 65.921875 21.058594 66.464844 22.085938 L 70.261719 29.828125 C 70.503906 30.3125 71.046875 30.613281 71.589844 30.492188 L 86.066406 28.011719 C 87.03125 27.890625 87.8125 28.800781 87.453125 29.707031 Z M 69.058594 59.765625 L 75.207031 53.71875 C 76.054688 52.871094 75.390625 51.480469 74.242188 51.539062 L 54.761719 53.355469 C 54.402344 53.414062 54.039062 53.597656 53.859375 53.898438 L 49.695312 60.007812 C 49.457031 60.371094 49.394531 60.914062 49.636719 61.277344 L 56.574219 74.582031 C 56.753906 75.007812 57.175781 75.25 57.597656 75.25 L 74.484375 76.035156 C 75.449219 76.097656 76.113281 75.066406 75.628906 74.222656 L 68.816406 61.21875 C 68.574219 60.734375 68.632812 60.1875 69.058594 59.765625 Z M 49.757812 70.351562 L 41.976562 52.328125 C 41.855469 51.964844 41.554688 51.722656 41.191406 51.601562 L 34.136719 49.484375 C 33.714844 49.363281 33.230469 49.484375 32.871094 49.785156 L 22.375 60.550781 C 22.074219 60.855469 21.953125 61.339844 22.074219 61.761719 L 26.539062 78.089844 C 26.777344 79 27.984375 79.363281 28.648438 78.636719 L 38.902344 68.113281 C 39.261719 67.6875 39.867188 67.628906 40.347656 67.871094 L 47.949219 71.863281 C 49.035156 72.46875 50.179688 71.378906 49.757812 70.351562 Z M 60.734375 13.617188 L 47.585938 3.035156 C 46.800781 2.429688 45.714844 2.851562 45.535156 3.820312 L 43.425781 18.394531 C 43.363281 18.941406 42.941406 19.363281 42.339844 19.484375 L 33.835938 20.753906 C 32.6875 20.9375 32.386719 22.449219 33.351562 23.054688 L 50.179688 33.09375 C 50.480469 33.273438 50.902344 33.335938 51.265625 33.214844 L 58.199219 30.734375 C 58.621094 30.554688 58.925781 30.191406 59.046875 29.707031 L 61.214844 14.828125 C 61.277344 14.34375 61.097656 13.921875 60.734375 13.617188 Z M 60.734375 13.617188 "/>
<path style=" stroke:none;fill-rule:nonzero;fill:rgb(1.568627%,41.568627%,21.960784%);fill-opacity:1;" d="M 10.011719 35.089844 L 23.160156 41.621094 C 23.640625 41.863281 23.945312 42.40625 23.824219 42.953125 L 22.375 51.417969 C 22.195312 52.628906 23.523438 53.414062 24.425781 52.628906 L 39.140625 39.6875 C 39.445312 39.445312 39.566406 39.082031 39.566406 38.71875 L 39.382812 31.339844 C 39.382812 30.855469 39.082031 30.433594 38.660156 30.25 L 25.210938 23.597656 C 24.789062 23.417969 24.367188 23.417969 23.945312 23.660156 L 9.832031 32.972656 C 9.046875 33.457031 9.105469 34.664062 10.011719 35.089844 Z M 10.011719 35.089844 "/>
</g>
</svg>
